<svg xmlns="http://www.w3.org/2000/svg" viewBox="-1 -1 102 102" id="icon-resend" width="100%" height="100%"><path d="M92.1 69l-5.6-13.9a1 1 0 0 0-1.1-.5c-1.9.8-4.1-.2-4.8-2.1-.4-.9-.4-1.9 0-2.8.4-.9 1.1-1.6 2-2 .2-.1.4-.2.5-.4s.1-.4 0-.6l-5.6-13.9a1 1 0 0 0-1.1-.5L61 38.5l9-20.9c.2-.4 0-.9-.4-1.1L57 11.1c-.4-.2-.9 0-1.1.4a3.3 3.3 0 0 1-4.3 1.8c-.8-.3-1.4-1-1.8-1.8-.3-.8-.3-1.7 0-2.5.1-.2.1-.4 0-.6-.1-.2-.2-.4-.4-.5L36.8 2.6c-.4-.2-.9 0-1.1.4L12.3 58.2l-3.9 1.5c-.2.2-.4.3-.4.5-.1.2-.1.4 0 .6l5.6 13.9c.2.4.7.6 1.1.5 1.9-.7 4.1.2 4.8 2 .4.9.4 1.9 0 2.8s-1.1 1.6-2 2c-.2.1-.4.2-.5.4-.1.2-.1.4 0 .6l5.4 14c.1.2.2.4.4.5.1 0 .2.1.3.1.1 0 .2 0 .3-.1l68.1-27.3c.5-.2.7-.7.6-1.2zM36.9 4.4L48 9.1c-.2 1-.2 2 .2 3 .5 1.2 1.4 2.2 2.7 2.7 2.3 1 4.8.1 6.1-1.9l11.1 4.7-9.3 21.8-4.7 1.9L59 30.2l2.5-5.8c.1-.2.1-.4 0-.6s-.2-.4-.4-.5L38 13.5c-.2-.1-.4-.1-.6 0-.2.1-.4.2-.5.4L19.1 55.5l-4.7 1.9 22.5-53zm-1.4 16.7l.8.3c.1 0 .2.1.3.1.3 0 .6-.2.8-.5.2-.4 0-.9-.4-1.1l-.8-.3 1.8-4.3 21.6 9.2-1.8 4.3-.8-.4c-.4-.2-.9 0-1.1.4-.2.4 0 .9.4 1.1l.8.3-5.1 12-30.7 12.4 14.2-33.5zM23.7 95.6l-5-12.4c1-.6 1.7-1.4 2.2-2.5.6-1.3.6-2.8 0-4.1-.8-2-2.8-3.4-5-3.4-.4 0-.8 0-1.2.1L9.8 61l66.5-26.7 5 12.4c-1 .6-1.7 1.4-2.2 2.5a4.9 4.9 0 0 0 0 4.1c.8 2 2.8 3.4 5 3.4.4 0 .8 0 1.2-.1l5 12.4-66.6 26.6z"></path><path d="M70 42.1c-.1-.2-.2-.4-.4-.5-.2-.1-.4-.1-.6 0L20.2 61.2a1 1 0 0 0-.5 1.1L30 87.8c.1.2.2.4.4.5.1 0 .2.1.3.1.1 0 .2 0 .3-.1l42.3-17 6.4-2.6c.4-.2.6-.7.5-1.1L70 42.1zm3.5 27.3l-.3-.8a1 1 0 0 0-1.1-.5 1 1 0 0 0-.5 1.1l.4.8-34.2 13.7-.3-.7a1 1 0 0 0-1.1-.5 1 1 0 0 0-.5 1.1l.3.8-5.1 2-9.6-23.9 5.1-2 .3.8c.1.3.4.5.8.5.1 0 .2 0 .3-.1.4-.2.6-.7.5-1.1l-.3-.8 34.1-13.7.3.8c.1.3.4.5.8.5.1 0 .2 0 .3-.1.4-.2.6-.7.5-1.1l-.3-.8 4.9-2 9.6 23.9-4.9 2.1z"></path><path d="M30.6 65.7c-.2-.4-.7-.6-1.1-.5s-.6.7-.5 1.1l1.4 3.4c.1.3.4.5.8.5.1 0 .2 0 .3-.1.4-.2.6-.7.5-1.1l-1.4-3.3zm3.5 8.6a1 1 0 0 0-1.1-.5 1 1 0 0 0-.5 1.1l1.4 3.4c.1.3.4.5.8.5.1 0 .2 0 .3-.1.4-.2.6-.7.5-1.1l-1.4-3.3zm32.2-22.9a1 1 0 0 0-1.1-.5 1 1 0 0 0-.5 1.1l1.4 3.4c.1.3.4.5.8.5.1 0 .2 0 .3-.1.4-.2.6-.7.5-1.1l-1.4-3.3zm1.9 9.3l1.4 3.4c.1.3.4.5.8.5.1 0 .2 0 .3-.1.4-.2.6-.7.5-1.1L69.7 60a1 1 0 0 0-1.1-.5c-.4.2-.6.7-.4 1.2zm-19.5-34l3.1 1.3c.1 0 .2.1.3.1.3 0 .6-.2.8-.5.2-.4 0-.9-.4-1.1l-3.1-1.3c-.4-.2-.9 0-1.1.4-.3.4-.1.9.4 1.1zm-7.8-3.3l3.1 1.3c.1 0 .2.1.3.1.3 0 .6-.2.8-.5.2-.4 0-.9-.4-1.1l-3.1-1.3c-.4-.2-.9 0-1.1.4-.2.4 0 .9.4 1.1zm13.4 41.4c-.5 0-.8.4-.8.8 0 2.4-2 4.4-4.4 4.4s-4.4-2-4.4-4.4c0-2.3 1.9-4.2 4.2-4.3l-1.6 2.3c-.3.4-.2.9.2 1.2.1.1.3.1.5.1.3 0 .5-.1.7-.4l2.6-3.7c.3-.4.2-.9-.2-1.1L47.5 57c-.4-.3-.9-.2-1.2.2s-.2.9.2 1.2l1.9 1.4c-3 .3-5.4 2.9-5.4 5.9 0 3.3 2.7 6 6 6s6-2.7 6-6c.1-.5-.3-.9-.7-.9z"></path></svg>