<svg xmlns="http://www.w3.org/2000/svg" viewBox="-1 -1 102 102"><path d="M50 59a8.96 8.96 0 0 0 7.3-14.2 8.9 8.9 0 0 0-14.6 0A8.96 8.96 0 0 0 50 59zm19.7-20v-8.7H61V39z"></path><path d="M50 5C25.2 5 5 25.2 5 50s20.2 45 45 45 45-20.2 45-45S74.8 5 50 5zm25.6 39.8v20.9c0 5.4-4.4 9.9-9.9 9.9H34.3c-5.4 0-9.9-4.4-9.9-9.9V34.3c0-5.4 4.4-9.9 9.9-9.9h31.4c5.4 0 9.9 4.4 9.9 9.9v10.5z"></path><path d="M64.1 50c0 7.7-6.2 14-14 14a13.98 13.98 0 0 1-13-19.2h-7.6v20.9c0 2.7 2.2 4.9 4.9 4.9h31.4c2.7 0 4.9-2.2 4.9-4.9V44.8H63c.7 1.5 1.1 3.4 1.1 5.2z"></path></svg>