<svg xmlns="http://www.w3.org/2000/svg" viewBox="-1 -1 102 102" id="icon-callcenter" width="100%" height="100%"><path d="M68.8 29.4c0-10.4-8.4-18.8-18.8-18.8S31.2 19 31.2 29.4 39.6 48.2 50 48.2s18.8-8.4 18.8-18.8zm-35.8 0c0-9.3 7.6-17 17-17 9.3 0 17 7.6 17 17 0 9.3-7.6 17-17 17-9.3 0-17-7.6-17-17z"></path><path d="M24 30.3c.5 0 .9-.4.9-.9C24.9 15.6 36.2 4.3 50 4.3s25.1 11.3 25.1 25.1c0 13.1-10.5 28.3-24.2 29v-3.9c0-.5-.4-.9-.9-.9s-.9.4-.9.9v8.6c0 .5.4.9.9.9s.9-.4.9-.9v-2.9c14.7-.7 26-16.8 26-30.8C76.9 14.6 64.8 2.5 50 2.5S23.1 14.6 23.1 29.4c0 .5.4.9.9.9z"></path><path d="M68.1 63c-.6-.2-1.2-.3-1.9-.3-.9 0-2.3.7-4.9 2.1-3.2 1.7-7.7 4-10.6 4-3.2 0-8-2.3-11.5-4-2.8-1.3-4.3-2-5.3-2-.7 0-1.3.1-1.9.3C16.7 68.2 11.2 86 11.2 96.7c0 .5.4.9.9.9H88c.5 0 .9-.4.9-.9 0-10.8-5.6-28.6-20.8-33.7zM13 95.7c.3-12.1 7.2-26.8 19.6-30.9.4-.1.8-.2 1.3-.2.6 0 2.7 1 4.5 1.9 3.9 1.9 8.7 4.2 12.3 4.2 3.3 0 7.8-2.3 11.4-4.2 1.6-.8 3.6-1.9 4.1-1.9s.9.1 1.3.2C79.9 68.9 86.7 83.6 87 95.7H13zm3.6-55.3c.5 0 .9-.4.9-.9V26.3c0-.5-.4-.9-.9-.9s-.9.4-.9.9v13.2c0 .5.4.9.9.9zm66.8 0c.5 0 .9-.4.9-.9V26.3c0-.5-.4-.9-.9-.9s-.9.4-.9.9v13.2c-.1.5.4.9.9.9z"></path></svg>